inDegrees=yes
name=ik_S51_A01_T02
DataType=double
version=3
OpenSimVersion=4.3-2021-08-27-4bc7ad9
endheader
time	pelvis_tilt	pelvis_list	pelvis_rotation	pelvis_tx	pelvis_ty	pelvis_tz	hip_flexion_r	hip_adduction_r	hip_rotation_r	knee_angle_r	knee_angle_r_beta	ankle_angle_r	subtalar_angle_r	mtp_angle_r	hip_flexion_l	hip_adduction_l	hip_rotation_l	knee_angle_l	knee_angle_l_beta	ankle_angle_l	subtalar_angle_l	mtp_angle_l	lumbar_extension	lumbar_bending	lumbar_rotation	arm_flex_r	arm_add_r	arm_rot_r	elbow_flex_r	pro_sup_r	wrist_flex_r	wrist_dev_r	arm_flex_l	arm_add_l	arm_rot_l	elbow_flex_l	pro_sup_l	wrist_flex_l	wrist_dev_l
9.499999999999886	3.163542953773313	2.679013926556007	92.1290124834439	0	0.9399999999999999	0	-4.86585482109207	8.729086011445361	-8.056614798708418	1.180139291619913	0.020597316270921	0	0	0	20.48198539972055	-0.4047516042228333	-13.62878020872165	0.9383742873531147	0.01637772093036724	0	0	0	0	0	0	31.1865576633954	-31.1865576633954	4.337493474574347	75.63320121104771	85.66250676852582	0	0	31.1865576633954	-31.1865576633954	4.337493474574347	75.63320121104771	85.66250676840188	0	0
9.519999999999886	3.384159726002797	2.816092464994632	91.77118029585462	0	0.9399999999999999	0	-7.005593791659893	9.690361870864519	-8.586312808061715	0.4637594722955694	0.008094129728869111	0	0	0	20.00121543329049	0.345178113231133	-15.96608572697306	-1.514647908954794	-0.02643559301970846	0	0	0	0	0	0	31.11369008810705	-31.11369008810705	4.331723655258979	75.55131498396275	85.66827658755027	0	0	31.11369008810705	-31.11369008810705	4.331723655258979	75.55131498396275	85.66827658742528	0	0
9.539999999999885	3.451824627511552	2.898755786441316	91.32956943985458	0	0.9399999999999999	0	-8.094692349193181	9.962356427420605	-8.72046464205744	1.002552738332576	0.01749784620878862	0	0	0	19.49066614598273	0.8997368436431187	-17.41357132739741	-3.654817876689972	-0.06378860550898813	0	0	0	0	0	0	31.11807931594946	-31.11807931594946	4.332143186122483	75.55730453444846	85.66785705670857	0	0	31.11807931594946	-31.11807931594946	4.332143186122483	75.55730453444846	85.66785705658361	0	0
9.559999999999885	3.46281524877887	2.912420262791892	90.7192590218247	0	0.9399999999999999	0	-9.140526984584874	9.918563480498303	-8.854418391276955	2.337591991462594	0.04079867681927345	0	0	0	19.41152376956904	0.8808905650266381	-15.45553517512144	-4.399300553353213	-0.07678227944082204	0	0	0	0	0	0	31.14197290545063	-31.14197290545063	4.334163276135941	75.58603534253236	85.66583696679805	0	0	31.14197290545063	-31.14197290545063	4.334163276135941	75.58603534253236	85.66583696667352	0	0
9.579999999999885	3.499109583723816	2.948070278657751	90.05692381583795	0	0.9399999999999999	0	-9.356414009169031	9.727048102178342	-8.352319306435964	3.873534605101972	0.06760593254896775	0	0	0	19.33749461426059	0.7961189697918722	-16.36047679536107	-3.735289661256758	-0.0651931031046341	0	0	0	0	0	0	31.14519078951632	-31.14519078951632	4.334470091317819	75.59041517740847	85.6655301516322	0	0	31.14519078951632	-31.14519078951632	4.334470091317819	75.59041517740847	85.66553015150771	0	0
9.599999999999884	3.584009369674047	2.999851642629387	89.41096980091808	0	0.9399999999999999	0	-10.37497537224503	9.538959277633172	-8.656400748960467	5.136240994752879	0.08964431653434654	0	0	0	19.58223049857052	0.07474601083329314	-13.84145707040157	-2.260591495661674	-0.03945476464187932	0	0	0	0	0	0	31.18871658025324	-31.18871658025324	4.33805243082203	75.6413195452634	85.66194781230969	0	0	31.18871658025324	-31.18871658025324	4.33805243082203	75.6413195452634	85.6619478121859	0	0
9.619999999999884	3.627702507244328	3.022820600543738	89.11529838753776	0	0.9399999999999999	0	-10.50692380709979	9.329477692451269	-8.520052769583728	7.17506363800593	0.125228484523326	0	0	0	19.81223845340641	-0.5437935760212226	-11.51639457243657	-0.5512305708089017	-0.009620788398263077	0	0	0	0	0	0	31.26234110664861	-31.26234110664861	4.344067002790721	75.72676297984785	85.65593324064574	0	0	31.26234110664861	-31.26234110664861	4.344067002790721	75.72676297984785	85.65593324052308	0	0
9.639999999999883	3.625358061098667	3.026387138017853	89.11984852380883	0	0.9399999999999999	0	-10.6019898426697	9.09262337274615	-8.721876988954916	9.294671024097378	0.1622226122602125	0	0	0	19.49886078027233	-0.4861528016708366	-9.50504836740129	-0.03136588036771892	-0.0005474378852033449	0	0	0	0	0	0	31.323574935653	-31.323574935653	4.349091435062648	75.79814926456254	85.65090880862849	0	0	31.323574935653	-31.323574935653	4.349091435062648	75.79814926456254	85.6509088085068	0	0
9.659999999999883	3.741330014449131	3.122853974440902	88.56021624010235	0	0.9399999999999999	0	-12.56438227449549	8.189269789975537	-12.15305003274682	9.852295891114958	0.1719550021806648	0	0	0	18.65163861920479	-0.6564509268408161	-8.610341357839452	1.083117462527065	0.01890396590694359	0	0	0	0	0	0	31.35298312456501	-31.35298312456501	4.351519427811557	75.83265254751426	85.64848081600276	0	0	31.35298312456501	-31.35298312456501	4.351519427811557	75.83265254751426	85.64848081588153	0	0
9.679999999999882	3.492320529374581	3.474197615113607	87.60466034319326	0	0.9399999999999999	0	-13.30773698926959	6.750586380134737	-12.99953699207952	12.60520328084874	0.220002300134002	0	0	0	17.87105819859686	-0.6667661543659505	-9.643568253025324	3.14371833786199	0.05486823575101524	0	0	0	0	0	0	31.35896934523953	-31.35896934523953	4.352086078390545	75.8407371314056	85.64791416545317	0	0	31.35896934523953	-31.35896934523953	4.352086078390545	75.8407371314056	85.64791416533204	0	0
